<?xml version="1.0" encoding="UTF-8"?>
<svg width="133px" height="46px" viewBox="0 0 133 46" version="1.1" xmlns="http://www.w3.org/2000/svg" xmlns:xlink="http://www.w3.org/1999/xlink">
    <title>Spry Logo</title>
    <defs>
        <polygon id="path-1" points="0.0148628916 0.128891192 20.6365803 0.128891192 20.6365803 27.090886 0.0148628916 27.090886"></polygon>
        <polygon id="path-3" points="0 0.204246597 37.3360447 0.204246597 37.3360447 26.5803109 0 26.5803109"></polygon>
        <polygon id="path-5" points="0.228649641 0.0305440415 37.5647069 0.0305440415 37.5647069 26.406585 0.228649641 26.406585"></polygon>
    </defs>
    <g id="Designs" stroke="none" stroke-width="1" fill="none" fill-rule="evenodd">
        <g id="Spry-website-D" transform="translate(-75.000000, -38.000000)">
            <g id="Spry-Logo" transform="translate(75.000000, 38.000000)">
                <path d="M87.805399,27.2009845 C87.2630674,30.5407772 85.630943,32.2139378 82.9160207,32.2139378 C81.518456,32.2139378 80.5007098,31.7718653 79.8590518,30.8858549 C79.2215907,29.9998446 78.9450622,28.9245078 79.0317979,27.657513 C79.042057,27.329456 79.0844922,26.8349223 79.1560725,26.178342 C79.2276528,25.5196632 79.293171,25.0377202 79.3526269,24.7346114 C79.5526788,23.394171 80.0574715,22.2535492 80.8702694,21.316943 C81.6830674,20.3805699 82.8169275,19.9112176 84.2632228,19.9112176 C86.9781451,19.9112176 88.2425751,21.5820466 88.0546477,24.9239378 C88.0527824,25.1764508 88.0250363,25.5574352 87.9704767,26.0645596 C87.9133523,26.567487 87.856228,26.9463731 87.805399,27.2009845 M91.7978083,18.2194041 C90.6028601,16.6115285 88.7235855,15.8054922 86.1567202,15.8054922 C83.4648808,15.8054922 81.3456839,16.7439637 79.7935337,18.616943 L79.9604767,17.0974352 C79.9882228,16.8449223 79.9227047,16.6304145 79.7643886,16.4515803 C79.6037409,16.2748446 79.3864352,16.1864767 79.1054767,16.1864767 L76.059,16.1864767 C75.8055544,16.1864767 75.5817202,16.2706477 75.3877306,16.4324611 C75.1893109,16.5968394 75.0794922,16.8199741 75.0480155,17.0974352 L72.2929896,42.2349482 C72.2631451,42.5128756 72.3244663,42.7318135 72.4869793,42.9001554 C72.6452953,43.0643005 72.8497772,43.1463731 73.1057876,43.1463731 L76.4222642,43.1463731 C76.7008912,43.1463731 76.9312539,43.0622021 77.1168497,42.9001554 C77.2982487,42.7339119 77.4038705,42.5128756 77.4334819,42.2349482 L78.3791813,33.6131347 C79.5295959,35.4124352 81.3729637,36.3110363 83.9125492,36.3110363 C86.4798808,36.3110363 88.5447513,35.4945078 90.104829,33.8614508 C91.6691036,32.2304922 92.6315907,30.0863472 93.0011503,27.4241192 C93.0580415,27.1210104 93.1216943,26.6665803 93.1890777,26.0582642 C93.2545959,25.4522798 93.2928342,24.9955181 93.3007617,24.6924093 C93.4952176,21.9840155 92.9925233,19.8270466 91.7978083,18.2194041" id="Fill-1" fill="#272559"></path>
                <g id="Group-5" transform="translate(111.450777, 16.057539)">
                    <mask id="mask-2" fill="white">
                        <use xlink:href="#path-1"></use>
                    </mask>
                    <g id="Clip-4"></g>
                    <path d="M20.6323834,0.890626943 C20.6134974,1.06526425 20.5395855,1.2716114 20.4108808,1.49870984 L6.90551813,26.3690207 C6.64787565,26.8509637 6.26805699,27.090886 5.75930052,27.090886 L2.29033679,27.090886 C2.08608808,27.090886 1.91261658,27.0151088 1.7626943,26.861456 C1.61300518,26.7099016 1.55168394,26.5310674 1.57290155,26.3312487 C1.5915544,26.154513 1.66569948,25.9502642 1.7923057,25.7229326 L5.65134715,18.5973109 L0.0484974093,1.20422798 C-0.112150259,0.695005181 0.325259067,0.128891192 0.880181347,0.128891192 L4.30484456,0.128891192 C4.76253886,0.128891192 5.06471503,0.370911917 5.21650259,0.852621762 L8.96176166,12.4966632 L15.2596632,0.852621762 C15.5676684,0.370911917 15.9498187,0.128891192 16.4058808,0.128891192 L19.914715,0.128891192 C20.1404145,0.128891192 20.3241451,0.206533679 20.4612435,0.358088083 C20.5964767,0.509642487 20.653601,0.688476684 20.6323834,0.890626943" id="Fill-3" fill="#272559" mask="url(#mask-2)"></path>
                </g>
                <path d="M109.708951,20.0438161 C109.66465,20.4520803 109.295324,20.7824689 108.887759,20.7824689 L105.537008,20.7824689 C104.344624,20.7824689 103.366982,21.1254482 102.606878,21.8095415 C101.846775,22.4913031 101.399339,23.4276762 101.270635,24.6167953 L100.130246,35.0232202 C100.102966,35.2778316 99.9889508,35.4925725 99.7926295,35.6693083 C99.5965415,35.8439456 99.3703756,35.9344119 99.1150648,35.9344119 L95.7267746,35.9344119 C95.4714637,35.9344119 95.2641839,35.8439456 95.1081995,35.6693083 C94.9473187,35.4925725 94.8820337,35.2778316 94.9116451,35.0232202 L96.8706606,17.1377021 C96.9005052,16.8597746 97.0121891,16.6345415 97.2129404,16.4557073 C97.4069301,16.2789715 97.6349611,16.1885052 97.8905052,16.1885052 L101.012992,16.1885052 C101.291852,16.1885052 101.51149,16.2789715 101.667474,16.4557073 C101.828122,16.6345415 101.88921,16.8597746 101.859598,17.1377021 L101.688692,18.6947487 C103.141282,17.0260181 105.064624,16.1885052 107.450091,16.1885052 L109.388122,16.1885052 C109.797552,16.1885052 110.093433,16.5188938 110.048666,16.927158 L109.708951,20.0438161 Z" id="Fill-6" fill="#272559"></path>
                <path d="M67.6420181,22.3207694 C66.3689611,21.7021943 64.6354119,21.1316503 62.4166554,20.6098368 C60.8122772,20.1826865 59.5835207,19.8017021 58.7602306,19.4440337 C57.934842,19.1115466 57.3332876,18.7074793 56.9742202,18.2551477 C56.6151528,17.8025829 56.4864482,17.232272 56.5622254,16.544215 C56.6743756,15.5213394 57.164013,14.7617021 58.0124845,14.2377902 C58.8593238,13.7136451 59.9910855,13.4527383 61.4031062,13.4527383 C62.6719663,13.4527383 63.7214223,13.7136451 64.523728,14.2608731 C65.3255674,14.8078679 65.7564482,15.472842 65.7860596,16.2812098 C65.9527694,16.7335415 66.3095052,16.9713653 66.8606969,16.9713653 L70.4770181,16.9713653 C70.7155415,16.9713653 70.9186244,16.8764689 71.0788057,16.7335415 C71.2413187,16.5672979 71.3341166,16.3779715 71.3534689,16.1863135 C71.4250492,15.0920907 71.1144793,13.9997332 70.4432098,12.9055104 C69.7721736,11.8112876 68.7015,10.8854067 67.2258264,10.1486192 C65.7986503,9.41229793 64.0168368,9.05439637 61.8864482,9.05439637 C59.8747383,9.05439637 58.0677435,9.38688342 56.4883135,10.0287746 C54.9070181,10.6937487 53.6575104,11.5986451 52.7199715,12.7392668 C51.7784689,13.9050699 51.2277435,15.2119352 51.0694275,16.6619611 C50.8327694,18.8252254 51.3417591,20.5130751 52.6295052,21.6536969 C53.8897383,22.8195 55.9921477,23.7453808 58.9309041,24.4588523 C60.7236762,24.9345 62.042899,25.3385674 62.9382358,25.6941373 C63.8354378,26.0268575 64.4854896,26.4306917 64.8907228,26.8832565 C65.2964223,27.3355881 65.4736244,27.905899 65.3978472,28.5941891 C65.2838316,29.6401477 64.7391684,30.4480492 63.7638575,31.0437746 C62.7885466,31.6371684 61.4159301,31.9234896 59.644842,31.9234896 C58.0381321,31.9465725 56.8261632,31.6371684 55.9797902,31.0668575 C55.1350492,30.4734637 54.6388834,29.7599922 54.4679767,28.9033601 C54.3476658,28.6888523 54.2021736,28.4995259 54.0226399,28.3794482 C53.8431062,28.2617021 53.6362927,28.1901218 53.349272,28.1901218 L49.9017591,28.1901218 C49.6630026,28.1901218 49.460386,28.284785 49.3002047,28.4279456 C49.1374585,28.5941891 49.0211114,28.7835155 48.9998938,28.9751736 C48.9052306,30.2820389 49.2260596,31.4961062 49.9418627,32.6115466 C50.6574326,33.7290855 51.8057487,34.6085674 53.3597642,35.298956 C54.9137798,35.9891114 56.838987,36.3215984 59.1146347,36.3215984 C61.2702047,36.3215984 63.2189611,36.0121943 64.9184689,35.3703031 C66.6179767,34.7286451 68.009013,33.8258472 69.0286244,32.6136451 C70.0487021,31.401443 70.6796347,29.9978161 70.8591684,28.3584637 C71.024013,26.8601736 70.8444793,25.6479715 70.3058782,24.6735933 C69.8097124,23.7477124 68.9146088,22.9395777 67.6420181,22.3207694" id="Fill-8" fill="#272559"></path>
                <g id="Group-12" transform="translate(0.000000, 18.389145)">
                    <mask id="mask-4" fill="white">
                        <use xlink:href="#path-3"></use>
                    </mask>
                    <g id="Clip-11"></g>
                    <path d="M35.6156813,0.204246597 C33.346329,0.225349741 24.2677539,0.212059585 21.9981684,0.212525907 C21.607158,0.212525907 21.1667176,0.161930052 21.0153964,0.642007772 C20.9396192,0.881930052 21.0333497,1.03791451 21.1741788,1.16755181 L23.7897746,4.15340674 C24.3980907,4.87527202 26.5804741,7.75084197 25.5123653,10.7166451 C25.5086347,10.726671 25.5056036,10.7359974 25.5021062,10.7460233 C24.4360959,13.5255311 21.8473135,15.297785 18.6210699,15.3075777 C13.5694119,15.3227332 3.07555181,15.3129404 2.88039637,15.3127073 C2.50290933,15.3124741 2.3420285,15.501101 2.25016321,15.8746244 C1.45695078,19.0997021 0.750474093,22.6481736 0.0314067358,25.7666969 C-0.107090674,26.3673187 0.222132124,26.5832254 0.824852332,26.5804543 C4.38777979,26.5624741 9.1085829,26.5636399 12.6715104,26.5748316 C14.5498523,26.5808938 16.4249301,26.5750648 18.2878834,26.2798834 C22.2635052,25.6496503 26.0735829,24.4920078 29.3389974,22.0892876 C36.2151373,17.0304016 38.4555777,9.39275907 36.8306813,1.16148964 C36.6884534,0.441256477 36.3130648,0.198069948 35.6156813,0.204246597" id="Fill-10" fill="#782EFD" mask="url(#mask-4)"></path>
                </g>
                <g id="Group-15" transform="translate(1.165803, 0.202617)">
                    <mask id="mask-6" fill="white">
                        <use xlink:href="#path-5"></use>
                    </mask>
                    <g id="Clip-14"></g>
                    <path d="M1.94901295,26.406585 C4.21836528,26.3854819 13.2969404,26.398772 15.5665259,26.3983057 C15.9575363,26.3983057 16.3979767,26.4489016 16.5492979,25.9688238 C16.6250751,25.7289016 16.5313446,25.5729171 16.3905155,25.4432798 L13.7749197,22.4574249 C13.1666036,21.7355596 10.9842202,18.8599896 12.052329,15.8941865 C12.0560596,15.8841606 12.0590907,15.8748342 12.0625881,15.8648083 C13.1285984,13.0853005 15.7173808,11.3130466 18.9436244,11.3032539 C23.9952824,11.2880984 34.4891425,11.2978912 34.6842979,11.2981244 C35.061785,11.2983575 35.2226658,11.1097306 35.3145311,10.7362073 C36.1077435,7.51112953 36.8142202,3.96265803 37.5332876,0.844134715 C37.671785,0.243512953 37.3425622,0.0276062176 36.739842,0.0303773426 C33.1769145,0.048357513 28.4561114,0.0471917098 24.8931839,0.036 C23.014842,0.0299378238 21.1397642,0.0357668394 19.2768109,0.330948187 C15.3011891,0.961181347 11.4911114,2.11882383 8.22569689,4.52154404 C1.34955699,9.58043005 -0.89088342,17.2180725 0.734012953,25.449342 C0.876240933,26.1695751 1.25162953,26.4127617 1.94901295,26.406585" id="Fill-13" fill="#17A1FB" mask="url(#mask-6)"></path>
                </g>
            </g>
        </g>
    </g>
</svg>