<?xml version="1.0" encoding="UTF-8"?>
<svg width="61px" height="56px" viewBox="0 0 61 56" version="1.1" xmlns="http://www.w3.org/2000/svg" xmlns:xlink="http://www.w3.org/1999/xlink">
    <title>Easy icon</title>
    <defs>
        <polygon id="path-1" points="6.03804801e-05 0.00567701005 56.1481704 0.00567701005 56.1481704 55.574821 6.03804801e-05 55.574821"></polygon>
        <polygon id="path-3" points="0.0790974465 0.0225082178 48.4615385 0.0225082178 48.4615385 40.4856883 0.0790974465 40.4856883"></polygon>
    </defs>
    <g id="Designs" stroke="none" stroke-width="1" fill="none" fill-rule="evenodd">
        <g id="Spry-website-D" transform="translate(-886.000000, -1600.000000)">
            <g id="Mod3:-Ease-&amp;-Flexibility" transform="translate(-128.000000, 1443.000000)">
                <g id="Easy-icon" transform="translate(1014.000000, 157.000000)">
                    <g id="Group-3">
                        <mask id="mask-2" fill="white">
                            <use xlink:href="#path-1"></use>
                        </mask>
                        <g id="Clip-2"></g>
                        <path d="M28.0739644,0.00555749405 C12.5691629,0.00555749405 6.038048e-05,12.4450817 6.038048e-05,27.7903386 C6.038048e-05,43.1352968 12.5691629,55.574821 28.0739644,55.574821 C43.5787659,55.574821 56.1481704,43.1352968 56.1481704,27.7903386 C56.1481704,12.4450817 43.5787659,0.00555749405 28.0739644,0.00555749405 M28.0739644,6.28014755 C40.0582821,6.28014755 49.80822,15.9295707 49.80822,27.7903386 C49.80822,39.6511066 40.0582821,49.3002309 28.0739644,49.3002309 C16.0899487,49.3002309 6.34001075,39.6511066 6.34001075,27.7903386 C6.34001075,15.9295707 16.0899487,6.28014755 28.0739644,6.28014755" id="Fill-1" fill="#17A1FB" mask="url(#mask-2)"></path>
                    </g>
                    <g id="Group-6" transform="translate(11.538462, 0.000000)">
                        <mask id="mask-4" fill="white">
                            <use xlink:href="#path-3"></use>
                        </mask>
                        <g id="Clip-5"></g>
                        <path d="M15.840602,40.4856883 L1.09113712,26.7709191 C-0.1890301,25.5804575 -0.264882943,23.5740074 0.921672241,22.2896256 C2.10852843,21.0055459 4.10749164,20.9291413 5.38795987,22.1196028 L15.4520067,31.4778023 L42.9607023,1.06274815 C44.1331104,-0.234317379 46.1326756,-0.331559544 47.4248829,0.845010256 C48.7176923,2.02188205 48.8146154,4.02712422 47.6416054,5.32418974 L15.840602,40.4856883 Z" id="Fill-4" fill="#782EFD" mask="url(#mask-4)"></path>
                    </g>
                </g>
            </g>
        </g>
    </g>
</svg>