<?xml version="1.0" encoding="UTF-8"?>
<svg width="106px" height="48px" viewBox="0 0 106 48" version="1.1" xmlns="http://www.w3.org/2000/svg" xmlns:xlink="http://www.w3.org/1999/xlink">
    <title>FMV icon</title>
    <defs>
        <polygon id="path-1" points="0 0.203 21 0.203 21 20.952875 0 20.952875"></polygon>
    </defs>
    <g id="Designs" stroke="none" stroke-width="1" fill="none" fill-rule="evenodd">
        <g id="Spry-website-D" transform="translate(-159.000000, -3452.000000)">
            <g id="Mod6:-FMV" transform="translate(0.000000, 3243.000000)">
                <g id="FMV-icon" transform="translate(159.000000, 209.000000)">
                    <path d="M104,45.2705 C86.4129353,45.2705 84.1517413,11 53.7512438,11 L53.5,11 L53.2487562,11 C22.8482587,11 20.5870647,45.2705 3,45.2705 L10.9845274,45.2705 C8.63213184,46.9705 6.04633085,48 3,48 L104,48 C100.953669,48 98.3678682,46.9705 96.0154726,45.2705 L104,45.2705 Z" id="Fill-1" fill="#782EFD"></path>
                    <path d="M2.66063348,48 C1.19120362,48 0,46.8104908 0,45.343151 C0,43.8758113 1.19120362,42.686302 2.66063348,42.686302 C8.97925792,42.686302 13.1311131,37.0611202 18.3875113,29.9392467 C25.6018824,20.1648258 34.5801267,8 53.3393665,8 C54.8087964,8 56,9.18950924 56,10.656849 C56,12.1241887 54.8087964,13.313698 53.3393665,13.313698 C46.1901176,13.313698 40.0990407,15.3549171 34.7179729,19.5540036 C29.8715656,23.3358384 26.2110407,28.2955428 22.6708778,33.0920408 C17.0123439,40.7584418 11.6677647,48 2.66063348,48" id="Fill-3" fill="#17A1FB"></path>
                    <path d="M103.339367,48 C94.3322353,48 88.9876561,40.7584418 83.3291222,33.0920408 C79.7889593,28.2955428 76.1284344,23.3358384 71.2820271,19.5540036 C65.9009593,15.3549171 59.8098824,13.313698 52.6606335,13.313698 C51.1912036,13.313698 50,12.1241887 50,10.656849 C50,9.18950924 51.1912036,8 52.6606335,8 C71.4198733,8 80.3981176,20.1648258 87.6124887,29.9392467 C92.8688869,37.0611202 97.0207421,42.686302 103.339367,42.686302 C104.808796,42.686302 106,43.8758113 106,45.343151 C106,46.8104908 104.808796,48 103.339367,48" id="Fill-5" fill="#17A1FB"></path>
                    <path d="M60,10.5 C60,14.6421774 56.6421774,18 52.5,18 C48.3578226,18 45,14.6421774 45,10.5 C45,6.35782258 48.3578226,3 52.5,3 C56.6421774,3 60,6.35782258 60,10.5" id="Fill-7" fill="#FFFFFF"></path>
                    <g id="Group-11" transform="translate(42.000000, 0.000000)">
                        <mask id="mask-2" fill="white">
                            <use xlink:href="#path-1"></use>
                        </mask>
                        <g id="Clip-10"></g>
                        <path d="M10.5,5.452875 C7.63995181,5.452875 5.31325301,7.751875 5.31325301,10.577875 C5.31325301,13.403875 7.63995181,15.702875 10.5,15.702875 C13.3600482,15.702875 15.686747,13.403875 15.686747,10.577875 C15.686747,7.751875 13.3600482,5.452875 10.5,5.452875 M10.5,20.952875 C4.7103253,20.952875 0,16.298625 0,10.577875 C0,4.857125 4.7103253,0.202875 10.5,0.202875 C16.2896747,0.202875 21,4.857125 21,10.577875 C21,16.298625 16.2896747,20.952875 10.5,20.952875" id="Fill-9" fill="#17A1FB" mask="url(#mask-2)"></path>
                    </g>
                </g>
            </g>
        </g>
    </g>
</svg>