<?xml version="1.0" encoding="UTF-8"?>
<svg width="31px" height="31px" viewBox="0 0 31 31" version="1.1" xmlns="http://www.w3.org/2000/svg" xmlns:xlink="http://www.w3.org/1999/xlink">
    <title>Intagram logo</title>
    <g id="Designs" stroke="none" stroke-width="1" fill="none" fill-rule="evenodd">
        <g id="Spry-website-D" transform="translate(-1203.000000, -4387.000000)" fill="#272559">
            <g id="Footer" transform="translate(0.000000, 4339.000000)">
                <g id="Intagram-logo" transform="translate(1203.000000, 48.000000)">
                    <path d="M15.36,0.0579865772 C11.1978523,0.0579865772 10.6759732,0.0579865772 9.03946309,0.148187919 C7.76697987,0.174604027 6.50802685,0.416214765 5.31543624,0.863355705 C3.23822819,1.65519463 1.59720805,3.29557047 0.805369128,5.37342282 C0.358228188,6.56601342 0.11661745,7.82496644 0.0902013423,9.09744966 C0.0193288591,10.7339597 0,11.2558389 0,15.4179866 C0,19.5801342 0,20.1020134 0.0902013423,21.7385235 C0.141744966,22.9955436 0.402684564,24.2338792 0.863355705,25.4045638 C1.65519463,27.4817718 3.29557047,29.1227919 5.37342282,29.9146309 C6.56601342,30.3617718 7.82496644,30.6033826 9.09744966,30.6297987 C10.7339597,30.7006711 11.2558389,30.72 15.4179866,30.72 C19.5801342,30.72 20.1020134,30.72 21.7385235,30.6297987 C23.011651,30.6033826 24.270604,30.3617718 25.4625503,29.9146309 C27.5404027,29.1227919 29.1814228,27.4817718 29.9726174,25.4045638 C30.4197584,24.2126174 30.6613691,22.9530201 30.6877852,21.6805369 C30.7586577,20.0440268 30.7779866,19.5221477 30.7779866,15.36 C30.7779866,11.1978523 30.7779866,10.6753289 30.6877852,9.03946309 C30.6613691,7.76697987 30.4197584,6.50738255 29.9726174,5.31543624 C29.1814228,3.23822819 27.5404027,1.59720805 25.4625503,0.805369128 C24.270604,0.358228188 23.011651,0.11661745 21.7385235,0.0902013423 C20.1020134,0.0193288591 19.5801342,2.27373675e-13 15.4179866,2.27373675e-13 L15.36,0.0579865772 Z M15.36,2.79624161 C19.4519195,2.79624161 19.9409396,2.79624161 21.5581208,2.88644295 C22.5310067,2.89481879 23.4948725,3.07393289 24.405906,3.4147651 C25.738953,3.93277852 26.7936644,4.98684564 27.3116779,6.32053691 C27.6525101,7.23157047 27.8316242,8.19543624 27.84,9.16832215 C27.9173154,10.7855034 27.9302013,11.2751678 27.9302013,15.366443 C27.9302013,19.4577181 27.9302013,19.9473826 27.84,21.5645638 C27.8316242,22.5374497 27.6525101,23.5013154 27.3116779,24.412349 C26.7936644,25.745396 25.738953,26.8001074 24.405906,27.3181208 C23.4948725,27.658953 22.5310067,27.8380671 21.5581208,27.846443 C19.9409396,27.9237584 19.4577181,27.9366443 15.36,27.9366443 C11.2629262,27.9366443 10.7797047,27.9366443 9.16187919,27.846443 C8.18899329,27.8380671 7.22512752,27.658953 6.31409396,27.3181208 C4.9913557,26.7910872 3.9495302,25.7357315 3.44053691,24.405906 C3.0997047,23.4948725 2.9205906,22.5310067 2.91221477,21.5581208 C2.83554362,19.9409396 2.82201342,19.4512752 2.82201342,15.36 C2.82201342,11.2687248 2.82201342,10.7790604 2.91221477,9.16187919 C2.9205906,8.18899329 3.0997047,7.22512752 3.44053691,6.31409396 C3.95855034,4.99908725 4.99908725,3.95855034 6.31409396,3.44053691 C7.22512752,3.0997047 8.18899329,2.9205906 9.16187919,2.91221477 C10.7797047,2.83489933 11.2687248,2.82201342 15.36,2.82201342 L15.36,2.79624161 Z" id="Fill-6"></path>
                    <path d="M15.36,20.4690685 C12.5379866,20.4690685 10.2507383,18.1818201 10.2507383,15.3598067 C10.2507383,12.5377933 12.5379866,10.2511893 15.36,10.2511893 C18.1820134,10.2511893 20.4692617,12.5377933 20.4692617,15.3598067 C20.4692617,18.1818201 18.1820134,20.4690685 15.36,20.4690685 M15.36,7.48716242 C11.011651,7.48716242 7.48671141,11.0114577 7.48671141,15.3598067 C7.48671141,19.7081557 11.011651,23.2330953 15.36,23.2330953 C19.708349,23.2330953 23.2332886,19.7081557 23.2332886,15.3598067 C23.2332886,11.0114577 19.708349,7.48716242 15.36,7.48716242" id="Fill-8"></path>
                    <path d="M23.5426792,5.33502282 C24.5600215,5.33502282 25.3853638,6.15972081 25.3853638,7.17706309 C25.3853638,8.19504966 24.5600215,9.02039195 23.5426792,9.02039195 C22.5253369,9.02039195 21.6999946,8.19504966 21.6999946,7.17706309 C21.6999946,6.15972081 22.5253369,5.33502282 23.5426792,5.33502282" id="Fill-10"></path>
                </g>
            </g>
        </g>
    </g>
</svg>