<?xml version="1.0" encoding="UTF-8"?>
<svg width="55px" height="60px" viewBox="0 0 55 60" version="1.1" xmlns="http://www.w3.org/2000/svg" xmlns:xlink="http://www.w3.org/1999/xlink">
    <title>NIL icon</title>
    <defs>
        <polygon id="path-1" points="0 0.178961039 54.9819538 0.178961039 54.9819538 60 0 60"></polygon>
    </defs>
    <g id="Designs" stroke="none" stroke-width="1" fill="none" fill-rule="evenodd">
        <g id="Spry-website-D" transform="translate(-159.000000, -1008.000000)">
            <g id="Mod2:-NIL-compliance" transform="translate(0.000000, 843.000000)">
                <g id="NIL-icon" transform="translate(159.000000, 165.000000)">
                    <path d="M17.3139213,56.3157895 C17.1057315,56.3157895 16.9230769,56.1341179 16.9230769,55.9270486 L16.9230769,15.125583 C16.9230769,14.9185137 17.1057315,14.7368421 17.3139213,14.7368421 L45.0899249,14.7368421 C45.2978541,14.7368421 45.4807692,14.9185137 45.4807692,15.125583 L45.4807692,55.9270486 C45.4807692,56.1341179 45.2978541,56.3157895 45.0899249,56.3157895 L17.3139213,56.3157895 Z" id="Fill-1" fill="#FFFFFF"></path>
                    <path d="M45.0150931,12.1052632 L17.3887531,12.1052632 C15.6783043,12.1052632 14.2788462,13.4993965 14.2788462,15.2033372 L14.2788462,55.8492944 C14.2788462,57.5532351 15.6783043,58.9473684 17.3887531,58.9473684 L45.0150931,58.9473684 C46.7255419,58.9473684 48.125,57.5532351 48.125,55.8492944 L48.125,15.2033372 C48.125,13.4993965 46.7255419,12.1052632 45.0150931,12.1052632 L45.0150931,12.1052632 Z M19.7211833,53.5257388 L42.6826629,53.5257388 L42.6826629,17.5268928 L19.7211833,17.5268928 L19.7211833,53.5257388 Z" id="Fill-3" fill="#17A1FB"></path>
                    <path d="M9.38122894,47.8947368 C9.1730392,47.8947368 8.99038462,47.7130653 8.99038462,47.505996 L8.99038462,6.70453036 C8.99038462,6.49746105 9.1730392,6.31578947 9.38122894,6.31578947 L37.1572326,6.31578947 C37.3651618,6.31578947 37.5480769,6.49746105 37.5480769,6.70453036 L37.5480769,47.505996 C37.5480769,47.7130653 37.3651618,47.8947368 37.1572326,47.8947368 L9.38122894,47.8947368 Z" id="Fill-5" fill="#FFFFFF"></path>
                    <path d="M37.0824008,3.68421053 L9.45606078,3.68421053 C7.74587113,3.68421053 6.34615385,5.07834385 6.34615385,6.78228459 L6.34615385,47.4282417 C6.34615385,49.1324406 7.74587113,50.5263158 9.45606078,50.5263158 L37.0824008,50.5263158 C38.7931087,50.5263158 40.1923077,49.1324406 40.1923077,47.4282417 L40.1923077,6.78228459 C40.1923077,5.07834385 38.7931087,3.68421053 37.0824008,3.68421053 L37.0824008,3.68421053 Z M11.788491,45.1046862 L34.7499706,45.1046862 L34.7499706,9.10584013 L11.788491,9.10584013 L11.788491,45.1046862 Z" id="Fill-7" fill="#17A1FB"></path>
                    <line x1="16.9230769" y1="14.7368421" x2="30.6730769" y2="14.7368421" id="Fill-9" fill="#FFFFFF"></line>
                    <path d="M30.6008537,17.3684211 L16.9953001,17.3684211 C15.4950414,17.3684211 14.2788462,16.1902256 14.2788462,14.7368421 C14.2788462,13.2834586 15.4950414,12.1052632 16.9953001,12.1052632 L30.6008537,12.1052632 C32.1011125,12.1052632 33.3173077,13.2834586 33.3173077,14.7368421 C33.3173077,16.1902256 32.1011125,17.3684211 30.6008537,17.3684211" id="Fill-11" fill="#17A1FB"></path>
                    <line x1="16.9230769" y1="24.7368421" x2="30.6730769" y2="24.7368421" id="Fill-13" fill="#FFFFFF"></line>
                    <path d="M30.6008537,27.3684211 L16.9953001,27.3684211 C15.4950414,27.3684211 14.2788462,26.1902256 14.2788462,24.7368421 C14.2788462,23.2834586 15.4950414,22.1052632 16.9953001,22.1052632 L30.6008537,22.1052632 C32.1011125,22.1052632 33.3173077,23.2834586 33.3173077,24.7368421 C33.3173077,26.1902256 32.1011125,27.3684211 30.6008537,27.3684211" id="Fill-15" fill="#17A1FB"></path>
                    <line x1="16.9230769" y1="34.2105263" x2="30.6730769" y2="34.2105263" id="Fill-17" fill="#FFFFFF"></line>
                    <path d="M30.6008907,36.8421053 L16.9952632,36.8421053 C15.4950249,36.8421053 14.2788462,35.6639098 14.2788462,34.2105263 C14.2788462,32.7571429 15.4950249,31.5789474 16.9952632,31.5789474 L30.6008907,31.5789474 C32.101129,31.5789474 33.3173077,32.7571429 33.3173077,34.2105263 C33.3173077,35.6639098 32.101129,36.8421053 30.6008907,36.8421053" id="Fill-19" fill="#17A1FB"></path>
                    <g id="Group-23">
                        <mask id="mask-2" fill="white">
                            <use xlink:href="#path-1"></use>
                        </mask>
                        <g id="Clip-22"></g>
                        <path d="M2.73623697,60 C2.07988626,60 1.42197156,59.7664935 0.897777251,59.2924675 C-0.221772512,58.2802597 -0.305706161,56.5555844 0.71036019,55.44 L50.2179194,1.07350649 C51.2339858,-0.0420779221 52.9647915,-0.125454545 54.0840806,0.886493506 C55.2036303,1.8987013 55.287564,3.62337662 54.272019,4.73896104 L4.76367773,59.1054545 C4.2238436,59.6984416 3.48121327,60 2.73623697,60" id="Fill-21" fill="#782EFD" mask="url(#mask-2)"></path>
                    </g>
                </g>
            </g>
        </g>
    </g>
</svg>