<?xml version="1.0" encoding="UTF-8"?>
<svg width="60px" height="60px" viewBox="0 0 60 60" version="1.1" xmlns="http://www.w3.org/2000/svg" xmlns:xlink="http://www.w3.org/1999/xlink">
    <title>Payments icon</title>
    <g id="Designs" stroke="none" stroke-width="1" fill="none" fill-rule="evenodd">
        <g id="Spry-website-D" transform="translate(-886.000000, -2809.000000)">
            <g id="Mod5:-Payments" transform="translate(0.000000, 2643.000000)">
                <g id="Payments-icon" transform="translate(886.000000, 166.000000)">
                    <path d="M30,56.6666667 C15.296,56.6666667 3.33333333,44.704 3.33333333,30 C3.33333333,15.296 15.296,3.33333333 30,3.33333333 C44.704,3.33333333 56.6666667,15.296 56.6666667,30 C56.6666667,44.704 44.704,56.6666667 30,56.6666667" id="Fill-1" fill="#782EFD"></path>
                    <path d="M30,0 C13.4315183,0 0,13.4315183 0,30 C0,46.5684817 13.4315183,60 30,60 C46.5684817,60 60,46.5684817 60,30 C60,13.4315183 46.5684817,0 30,0 M30,6.59685864 C42.9043979,6.59685864 53.4031414,17.095288 53.4031414,30 C53.4031414,42.904712 42.9043979,53.4031414 30,53.4031414 C17.0956021,53.4031414 6.59685864,42.904712 6.59685864,30 C6.59685864,17.095288 17.0956021,6.59685864 30,6.59685864" id="Fill-3" fill="#17A1FB"></path>
                    <path d="M31.2757407,27.2111654 L28.781618,27.2111654 C26.8347757,27.2111654 25.3134592,25.4630363 25.4960909,23.4653548 C25.6787227,21.7175412 27.2603015,20.406681 28.9636349,20.406681 L31.8842058,20.406681 C32.9790741,20.406681 33.8919254,21.2181209 34.135127,22.2794286 C34.1960043,22.591448 34.4392058,22.778849 34.7435921,22.778849 L38.089689,22.778849 C38.454645,22.778849 38.7590313,22.4665141 38.7590313,22.0920276 C38.3937678,18.6588675 35.7167058,15.9743646 32.3100392,15.7244967 L32.3100392,12.353488 C32.3100392,11.9790016 32.0059604,11.6666667 31.6406968,11.6666667 L28.3554772,11.6666667 C27.9902137,11.6666667 27.6861349,11.9790016 27.6861349,12.353488 L27.6861349,15.7869637 C23.5492486,16.348851 20.4463533,20.1568131 20.8724941,24.6515965 C21.2983274,28.8968275 24.9485031,31.9558168 29.0856968,31.9558168 L31.2148635,31.9558168 C33.1617058,31.9558168 34.6827149,33.7036303 34.5000831,35.7013119 C34.3177588,37.4491254 32.7358725,38.7599856 31.0325392,38.7599856 L28.1122757,38.7599856 C27.0167925,38.7599856 26.104556,37.9485458 25.8613545,36.8872381 C25.8001698,36.5752186 25.5569682,36.3878177 25.2525819,36.3878177 L21.9064851,36.3878177 C21.541529,36.3878177 21.1765729,36.7001526 21.2374502,37.074639 C21.6024062,40.5081147 24.2791607,43.1926175 27.6861349,43.44217 L27.6861349,46.8131787 C27.6861349,47.1876651 27.9902137,47.5 28.3554772,47.5 L31.6406968,47.5 C32.0059604,47.5 32.3100392,47.1876651 32.3100392,46.8131787 L32.3100392,43.317236 C35.8387678,42.6931972 38.7590313,39.8837603 39.1236799,36.1382652 C39.6103905,31.3314624 35.8993376,27.2111654 31.2757407,27.2111654" id="Fill-5" fill="#FFFFFF"></path>
                </g>
            </g>
        </g>
    </g>
</svg>