<?xml version="1.0" encoding="UTF-8"?>
<svg width="87px" height="60px" viewBox="0 0 87 60" version="1.1" xmlns="http://www.w3.org/2000/svg" xmlns:xlink="http://www.w3.org/1999/xlink">
    <title>Transparency icon</title>
    <g id="Designs" stroke="none" stroke-width="1" fill="none" fill-rule="evenodd">
        <g id="Spry-website-D" transform="translate(-159.000000, -2210.000000)">
            <g id="Mod4:-Transparency" transform="translate(0.000000, 2043.000000)">
                <g id="Transparency-icon" transform="translate(159.000000, 167.000000)">
                    <path d="M57.3027352,0 C40.9013887,0 27.6057692,13.4315249 27.6057692,29.9998491 C27.6057692,46.5684751 40.9013887,60 57.3027352,60 C73.7040818,60 87,46.5684751 87,29.9998491 C87,13.4315249 73.7040818,0 57.3027352,0 M57.3027352,6.33818758 C70.2183176,6.33818758 80.7258037,16.9528409 80.7258037,29.9998491 C80.7258037,43.0471591 70.2183176,53.6618124 57.3027352,53.6618124 C44.3871528,53.6618124 33.8799655,43.0471591 33.8799655,29.9998491 C33.8799655,16.9528409 44.3871528,6.33818758 57.3027352,6.33818758" id="Fill-1" fill="#17A1FB"></path>
                    <g id="Group-7">
                        <path d="M29.6665229,56.8341709 C15.0364404,56.8341709 3.13401568,44.8103518 3.13401568,30.0310553 C3.13401568,15.2514573 15.0364404,3.22763819 29.6665229,3.22763819 C44.2969038,3.22763819 56.1993285,15.2514573 56.1993285,30.0310553 C56.1993285,44.8103518 44.2969038,56.8341709 29.6665229,56.8341709" id="Fill-3" fill-opacity="0.807610358" fill="#782EFD"></path>
                        <path d="M29.6665229,0.0616884422 C13.2820722,0.0616884422 0.000149231736,13.4793769 0.000149231736,30.0309347 C0.000149231736,46.582191 13.2820722,59.9998794 29.6665229,59.9998794 C46.0509736,59.9998794 59.333195,46.582191 59.333195,30.0309347 C59.333195,13.4793769 46.0509736,0.0616884422 29.6665229,0.0616884422 M29.6665229,6.39334673 C42.5688003,6.39334673 53.0654621,16.9970653 53.0654621,30.0309347 C53.0654621,43.0645025 42.5688003,53.6682211 29.6665229,53.6682211 C16.7642455,53.6682211 6.26788213,43.0645025 6.26788213,30.0309347 C6.26788213,16.9970653 16.7642455,6.39334673 29.6665229,6.39334673" id="Fill-5" fill="#17A1FB"></path>
                    </g>
                    <path d="M29.696966,0 C13.2956194,0 -1.42108547e-13,13.4315249 -1.42108547e-13,30.0001509 C-1.42108547e-13,46.5684751 13.2956194,60 29.696966,60 C46.0983126,60 59.3942308,46.5684751 59.3942308,30.0001509 C59.3942308,13.4315249 46.0983126,0 29.696966,0 M29.696966,6.33818758 C42.6125484,6.33818758 53.1200345,16.9528409 53.1200345,30.0001509 C53.1200345,43.0471591 42.6125484,53.6618124 29.696966,53.6618124 C16.7813836,53.6618124 6.27419626,43.0471591 6.27419626,30.0001509 C6.27419626,16.9528409 16.7813836,6.33818758 29.696966,6.33818758" id="Fill-8" fill="#17A1FB"></path>
                </g>
            </g>
        </g>
    </g>
</svg>