<?xml version="1.0" encoding="UTF-8"?>
<svg width="32px" height="26px" viewBox="0 0 32 26" version="1.1" xmlns="http://www.w3.org/2000/svg" xmlns:xlink="http://www.w3.org/1999/xlink">
    <title>Twitter logo</title>
    <defs>
        <polygon id="path-1" points="0.375881879 0.148191404 31.0634094 0.148191404 31.0634094 25.0698585 0.375881879 25.0698585"></polygon>
    </defs>
    <g id="Designs" stroke="none" stroke-width="1" fill="none" fill-rule="evenodd">
        <g id="Spry-website-D" transform="translate(-1256.000000, -4390.000000)">
            <g id="Footer" transform="translate(0.000000, 4339.000000)">
                <g id="Social-icons" transform="translate(1203.000000, 48.000000)">
                    <g id="Twitter-logo" transform="translate(53.000000, 3.000000)">
                        <mask id="mask-2" fill="white">
                            <use xlink:href="#path-1"></use>
                        </mask>
                        <g id="Clip-4"></g>
                        <path d="M31.0636671,3.09931812 C29.9142443,3.60573423 28.6958819,3.94012349 27.4491705,4.09153289 C28.7641772,3.30484832 29.7473718,2.06586846 30.2131973,0.605895302 C28.9787275,1.33974765 27.6276403,1.85582819 26.2179221,2.13287517 C23.8378953,-0.401138255 19.8542174,-0.524842953 17.3208483,1.85518389 C16.0560966,3.04390872 15.3383517,4.70103624 15.3364188,6.43676779 C15.3370631,6.91998926 15.3911839,7.40192215 15.4974926,7.87290201 C10.4417074,7.62613691 5.72739866,5.25062013 2.52074094,1.33394899 C0.862324832,4.1997745 1.70699597,7.8606604 4.45362685,9.70978792 C3.45368054,9.67821745 2.47564027,9.40825772 1.60004295,8.92374765 L1.60004295,9.00750604 C1.60197584,12.0021906 3.71526443,14.5813047 6.65067383,15.1727678 C5.72417718,15.4221101 4.75322416,15.4594792 3.80933154,15.282298 C4.63145235,17.8465933 6.99408322,19.6029423 9.6853047,19.6506201 C7.45604295,21.3947275 4.7068349,22.3379758 1.87644564,22.3315329 C1.37518389,22.3308886 0.873922148,22.3006067 0.375881879,22.2413315 C3.25652617,24.096902 6.6133047,25.0794523 10.0403114,25.0698585 C21.6376268,25.0698585 27.9446336,15.4826738 27.9446336,7.17062013 L27.9446336,6.3530094 C29.1694389,5.46194899 30.2247946,4.36020403 31.0636671,3.09931812" id="Fill-3" fill="#272559" mask="url(#mask-2)"></path>
                    </g>
                </g>
            </g>
        </g>
    </g>
</svg>